<svg xmlns="http://www.w3.org/2000/svg" viewBox="0 0 32 32" style="enable-background:new 0 0 32 32" xml:space="preserve"><path d="M0 0h32v32H0z" fill="#063"/><path d="M25.666 33.135c-.079-.196-2.027-4.775-9.666-4.775-7.638 0-9.587 4.579-9.666 4.774l-.668-.269c.084-.21 2.123-5.078 9.975-5.223V20.36H13c-4.127 0-7.36-3.233-7.36-7.36v-3A.36.36 0 0 1 6 9.64h3c2.965 0 5.468 1.668 6.643 4.138C15.756 9.757 18.947 6.64 23 6.64h3a.36.36 0 0 1 .36.36v3c0 4.127-3.233 7.36-7.36 7.36h-2.64v10.284c7.852.145 9.89 5.013 9.974 5.223l-.668.268zM6.36 10.36V13c0 3.723 2.917 6.64 6.64 6.64h2.131l-5.385-5.386.509-.509 5.386 5.385V17c0-3.723-2.917-6.64-6.64-6.64H6.36zm10.509 6.28H19c3.724 0 6.64-2.917 6.64-6.64V7.36H23c-3.724 0-6.64 2.917-6.64 6.64v2.131l5.385-5.385.51.509-5.386 5.385z" fill="#ABFE2C"/></svg>